<svg xmlns="http://www.w3.org/2000/svg" width="180" height="120" viewBox="0 0 180 120"><rect width="180" height="120" rx="10" fill="#fffdf7"/>
<path d="M20 40 H160" stroke="#ff8f00" stroke-width="3" fill="none" stroke-linecap="round" stroke-linejoin="round" stroke-dasharray="8 6"/>
<g transform="translate(90,86) scale(0.9)"><path d="M0 -14 C-10 -22 -22 -12 -20 2 C-18 16 -8 22 0 18 C8 22 18 16 20 2 C22 -12 10 -22 0 -14 Z" fill="#e53935" stroke="#333" stroke-width="2"/><path d="M0 -14 L2 -24" stroke="#5d4037" stroke-width="2.5" stroke-linecap="round"/><path d="M3 -21 C8 -28 16 -26 16 -22 C12 -18 6 -18 3 -21 Z" fill="#66bb6a" stroke="#333" stroke-width="1.3"/></g>
<path d="M140 48 V76" stroke="#ff8f00" stroke-width="3" fill="none" stroke-linecap="round" stroke-linejoin="round"/>
<path d="M133 71 L140 78 L147 71" stroke="#ff8f00" stroke-width="3" fill="none" stroke-linecap="round" stroke-linejoin="round"/>
<path d="M40 48 V76" stroke="#ff8f00" stroke-width="3" fill="none" stroke-linecap="round" stroke-linejoin="round"/>
<path d="M33 71 L40 78 L47 71" stroke="#ff8f00" stroke-width="3" fill="none" stroke-linecap="round" stroke-linejoin="round"/>

</svg>
