<svg xmlns="http://www.w3.org/2000/svg" width="180" height="120" viewBox="0 0 180 120"><rect width="180" height="120" rx="10" fill="#fffdf7"/>
<path d="M63.0 50 L70.0 80 H110.0 L117.0 50 Z" fill="#d7a86e" stroke="#6d4c41" stroke-width="2.5" stroke-linejoin="round"/><path d="M67.0 65.0 H113.0 M90 50 V80" stroke="#6d4c41" stroke-width="1.5" opacity="0.6"/><rect x="61.0" y="50" width="58" height="7" rx="3" fill="#bf8c55" stroke="#6d4c41" stroke-width="2"/>
<ellipse cx="90" cy="64" rx="70" ry="42" fill="none" stroke="#ff8f00" stroke-width="3" stroke-dasharray="8 6"/>
<path d="M83 15 L90 22 L83 29" stroke="#ff8f00" stroke-width="3.5" fill="none" stroke-linecap="round" stroke-linejoin="round"/>
<g transform="translate(28,64) scale(0.6)"><path d="M0 -14 C-10 -22 -22 -12 -20 2 C-18 16 -8 22 0 18 C8 22 18 16 20 2 C22 -12 10 -22 0 -14 Z" fill="#e53935" stroke="#333" stroke-width="2"/><path d="M0 -14 L2 -24" stroke="#5d4037" stroke-width="2.5" stroke-linecap="round"/><path d="M3 -21 C8 -28 16 -26 16 -22 C12 -18 6 -18 3 -21 Z" fill="#66bb6a" stroke="#333" stroke-width="1.3"/></g>

</svg>
