<svg xmlns="http://www.w3.org/2000/svg" width="180" height="120" viewBox="0 0 180 120"><rect width="180" height="120" rx="10" fill="#fffdf7"/>
<path d="M15 108 H165" stroke="#8d6e63" stroke-width="3" stroke-linecap="round"/>
<rect x="78" y="62" width="24" height="46" fill="#bcaaa4" stroke="#6d4c41" stroke-width="2.5"/>
<path d="M78 70 H102 M78 85 H102 M90 62 V70 M84 70 V85 M96 85 V100 M84 85 V100" stroke="#6d4c41" stroke-width="1.5" fill="none" stroke-linecap="round" stroke-linejoin="round"/>
<path d="M30 90 C45 10 135 10 150 90" stroke="#ff8f00" stroke-width="3" fill="none" stroke-linecap="round" stroke-linejoin="round" stroke-dasharray="6 6"/>
<path d="M143 83 L150 90 L157 83" stroke="#ff8f00" stroke-width="3" fill="none" stroke-linecap="round" stroke-linejoin="round"/>
<g transform="translate(90,28) scale(0.8)"><path d="M0 -14 C-10 -22 -22 -12 -20 2 C-18 16 -8 22 0 18 C8 22 18 16 20 2 C22 -12 10 -22 0 -14 Z" fill="#e53935" stroke="#333" stroke-width="2"/><path d="M0 -14 L2 -24" stroke="#5d4037" stroke-width="2.5" stroke-linecap="round"/><path d="M3 -21 C8 -28 16 -26 16 -22 C12 -18 6 -18 3 -21 Z" fill="#66bb6a" stroke="#333" stroke-width="1.3"/></g>

</svg>
