<svg xmlns="http://www.w3.org/2000/svg" width="180" height="120" viewBox="0 0 180 120"><rect width="180" height="120" rx="10" fill="#fffdf7"/>
<path d="M14 84 H164" stroke="#333" stroke-width="2.5" stroke-linecap="round"/><path d="M157 78 L165 84 L157 90" stroke="#333" stroke-width="2.5" fill="none" stroke-linecap="round" stroke-linejoin="round"/>
<path d="M45 70 V98" stroke="#ff8f00" stroke-width="3" stroke-linecap="round"/>
<circle cx="45" cy="84" r="4" fill="#ff8f00"/><g transform="translate(45,44) scale(0.8)"><path d="M0 -14 C-10 -22 -22 -12 -20 2 C-18 16 -8 22 0 18 C8 22 18 16 20 2 C22 -12 10 -22 0 -14 Z" fill="#e53935" stroke="#333" stroke-width="2"/><path d="M0 -14 L2 -24" stroke="#5d4037" stroke-width="2.5" stroke-linecap="round"/><path d="M3 -21 C8 -28 16 -26 16 -22 C12 -18 6 -18 3 -21 Z" fill="#66bb6a" stroke="#333" stroke-width="1.3"/></g>
<path d="M52 84 H130" stroke="#ff8f00" stroke-width="5" fill="none" stroke-linecap="round" stroke-linejoin="round"/>
<path d="M128 78 L134 84 L128 90" stroke="#ff8f00" stroke-width="4" fill="none" stroke-linecap="round" stroke-linejoin="round"/>
<path d="M142 66 V102" stroke="#333" stroke-width="2.5" stroke-linecap="round"/>
<text x="142" y="112" font-family="Arial, Helvetica, sans-serif" font-size="12" fill="#333" text-anchor="middle">now</text>

</svg>
