<svg xmlns="http://www.w3.org/2000/svg" width="180" height="120" viewBox="0 0 180 120"><rect width="180" height="120" rx="10" fill="#fffdf7"/>
<path d="M25 52 H155" stroke="#6d4c41" stroke-width="6" stroke-linecap="round"/><path d="M40 55 V108 M140 55 V108" stroke="#6d4c41" stroke-width="5" stroke-linecap="round"/>
<path d="M15 110 H165" stroke="#8d6e63" stroke-width="3" stroke-linecap="round"/>
<g transform="translate(90,90) scale(0.85)"><path d="M0 -14 C-10 -22 -22 -12 -20 2 C-18 16 -8 22 0 18 C8 22 18 16 20 2 C22 -12 10 -22 0 -14 Z" fill="#e53935" stroke="#333" stroke-width="2"/><path d="M0 -14 L2 -24" stroke="#5d4037" stroke-width="2.5" stroke-linecap="round"/><path d="M3 -21 C8 -28 16 -26 16 -22 C12 -18 6 -18 3 -21 Z" fill="#66bb6a" stroke="#333" stroke-width="1.3"/></g>
<path d="M62 60 H118 M72 60 V70 M108 60 V70" stroke="#ff8f00" stroke-width="3" fill="none" stroke-linecap="round" stroke-linejoin="round"/>

</svg>
