<svg xmlns="http://www.w3.org/2000/svg" width="280" height="130" viewBox="0 0 280 130"><rect width="280" height="130" rx="10" fill="#fffdf7"/><path d="M20 92 H258" stroke="#6d4c41" stroke-width="3" stroke-linecap="round"/><path d="M250 86 L260 92 L250 98" fill="none" stroke="#6d4c41" stroke-width="3" stroke-linecap="round" stroke-linejoin="round"/><circle cx="80" cy="92" r="6" fill="#6d4c41"/><text x="80" y="118" font-family="Helvetica, Arial, sans-serif" font-size="14" text-anchor="middle" fill="#6d4c41">now</text><g transform="translate(80,52) scale(1)"><path d="M0 -14 C-10 -22 -22 -12 -20 2 C-18 16 -8 22 0 18 C8 22 18 16 20 2 C22 -12 10 -22 0 -14 Z" fill="#e53935" stroke="#333" stroke-width="2"/><circle cx="17" cy="-4" r="8" fill="#fffdf7"/><path d="M3 -21 C8 -28 16 -26 16 -22 C12 -18 6 -18 3 -21 Z" fill="#66bb6a" stroke="#333" stroke-width="1.3"/></g><text x="80" y="20" font-family="Helvetica, Arial, sans-serif" font-size="15" font-weight="bold" text-anchor="middle" fill="#333">doing</text><path d="M108 60 C140 40 170 40 196 55" fill="none" stroke="#ff8f00" stroke-width="3" stroke-dasharray="7 5" stroke-linecap="round"/><path d="M186 48 L198 56 L184 60" fill="none" stroke="#ff8f00" stroke-width="3" stroke-linecap="round" stroke-linejoin="round"/><g transform="translate(220,62) scale(1)"><path d="M0 -14 C-10 -22 -22 -12 -20 2 C-18 16 -8 22 0 18 C8 22 18 16 20 2 C22 -12 10 -22 0 -14 Z" fill="#e53935" stroke="#333" stroke-width="2"/><path d="M3 -21 C8 -28 16 -26 16 -22 C12 -18 6 -18 3 -21 Z" fill="#66bb6a" stroke="#333" stroke-width="1.3"/></g><circle cx="220" cy="92" r="5" fill="none" stroke="#6d4c41" stroke-width="2.5"/><text x="220" y="20" font-family="Helvetica, Arial, sans-serif" font-size="15" font-weight="bold" text-anchor="middle" fill="#ff8f00">to do</text><text x="220" y="118" font-family="Helvetica, Arial, sans-serif" font-size="14" text-anchor="middle" fill="#6d4c41">later</text></svg>